With the voices of Seth Green, Joan Cusack and Dan Fogler

De negen jaar oude Milo (Seth Green) komt er achter hoe erg hij zijn moeder (Joan Cusack) nodig heeft wanneer ze wordt ontvoerd door marsmannetjes. Ze willen haar als moeder gebruiken voor hun eigen jonkies...

A young boy named Milo gains a deeper appreciation for his mom after Martians come to Earth to take her away. 

------------------ Dutch Friends ------------------

You can find my Friends at: http://www.Film-Test.nl 
                    
------ They got my dutchs subs ---- and more ------

General:

Complete name                    : Mars Needs Moms!\Mars Needs Moms!.avi
Format                           : AVI
Format/Info                      : Audio Video Interleave
File size                        : 1.37 GiB
Duration                         : 1h 24mn
Overall bit rate                 : 2 323 Kbps

Video:

Format                           : MPEG-4 Visual
Format profile                   : Simple@L3
Format settings, BVOP            : No
Format settings, QPel            : No
Format settings, GMC             : No warppoints
Format settings, Matrix          : Default (H.263)
Codec ID                         : XVID
Codec ID/Hint                    : XviD
Duration                         : 1h 24mn
Bit rate                         : 2 150 Kbps
Width                            : 720 pixels
Height                           : 500 pixels
Display aspect ratio             : 1.440
Frame rate                       : 25.000 fps
Color space                      : YUV
Chroma subsampling               : 4:2:0
Bit depth                        : 8 bits
Scan type                        : Progressive
Bits/(Pixel*Frame)               : 0.239
Stream size                      : 1.27 GiB (93%)
Writing library                  : XviD 1.1.2 (UTC 2006-11-01)

Audio:

Format                           : MPEG Audio
Format version                   : Version 1
Format profile                   : Layer 3
Mode                             : Joint stereo
Mode extension                   : MS Stereo
Codec ID                         : 55
Codec ID/Hint                    : MP3
Duration                         : 1h 24mn
Bit rate mode                    : Constant
Bit rate                         : 160 Kbps
Channel(s)                       : 2 channels
Sampling rate                    : 48.0 KHz
Stream size                      : 96.7 MiB (7%)
Alignment                        : Split accross interleaves
Interleave, duration             : 24 ms (0.60 video frame)
Interleave, preload duration     : 44 ms
Writing library                  : LAME3.98

